<svg xmlns="http://www.w3.org/2000/svg" xmlns:xlink="http://www.w3.org/1999/xlink" viewBox="772.987 20.481 14.54 14.54">
  <defs>
    <style>
      .cls-1 {
        fill: none;
      }

      .cls-2 {
        clip-path: url(#clip-path);
      }

      .cls-3 {
        fill: #2b2e34;
      }
    </style>
    <clipPath id="clip-path">
      <path id="Path_14" data-name="Path 14" class="cls-1" d="M0,4.254H14.54v-14.54H0Z" transform="translate(0 10.286)"/>
    </clipPath>
  </defs>
  <g id="Group_25" data-name="Group 25" transform="translate(772.987 20.481)">
    <g id="Group_24" data-name="Group 24" class="cls-2" transform="translate(0 0)">
      <g id="Group_23" data-name="Group 23" transform="translate(0 0.001)">
        <path id="Path_13" data-name="Path 13" class="cls-3" d="M3.722,3.715a.562.562,0,0,1-.407.165H-6.8a.559.559,0,0,1-.413-.165A.558.558,0,0,1-7.381,3.3V-2.831h1.334A4.1,4.1,0,0,0-6.236-1.59a4.157,4.157,0,0,0,1.326,3.1A4.421,4.421,0,0,0-1.72,2.792,4.545,4.545,0,0,0,.551,2.205,4.425,4.425,0,0,0,2.2.611,4.194,4.194,0,0,0,2.8-1.59a4.094,4.094,0,0,0-.188-1.241H3.893V3.3a.552.552,0,0,1-.171.411M-1.72,1.089A2.856,2.856,0,0,1-3.78.26a2.684,2.684,0,0,1-.857-2,2.685,2.685,0,0,1,.857-2,2.861,2.861,0,0,1,2.06-.828,2.872,2.872,0,0,1,2.068.828,2.685,2.685,0,0,1,.857,2,2.684,2.684,0,0,1-.857,2,2.866,2.866,0,0,1-2.068.828M3.7-4.686a.636.636,0,0,1-.465.189H1.592a.632.632,0,0,1-.464-.189.632.632,0,0,1-.189-.464V-6.711a.639.639,0,0,1,.189-.459.625.625,0,0,1,.464-.194H3.239a.629.629,0,0,1,.465.194.639.639,0,0,1,.189.459v1.562a.632.632,0,0,1-.189.464M4.99-8.435a1.793,1.793,0,0,0-1.315-.548H-7.136a1.8,1.8,0,0,0-1.316.548A1.794,1.794,0,0,0-9-7.119V3.691a1.794,1.794,0,0,0,.548,1.316,1.8,1.8,0,0,0,1.316.548H3.675A1.793,1.793,0,0,0,4.99,5.007a1.8,1.8,0,0,0,.55-1.316V-7.119a1.8,1.8,0,0,0-.55-1.316" transform="translate(9 8.983)"/>
      </g>
    </g>
  </g>
</svg>
