<svg xmlns="http://www.w3.org/2000/svg" xmlns:xlink="http://www.w3.org/1999/xlink" viewBox="736.234 21.895 14.919 12.116">
  <defs>
    <style>
      .cls-1 {
        fill: #fff;
      }

      .cls-2 {
        clip-path: url(#clip-path);
      }

      .cls-3 {
        fill: #2b2e34;
      }
    </style>
    <clipPath id="clip-path">
      <path id="Path_7" data-name="Path 7" class="cls-1" d="M0,3.545H14.919V-8.571H0Z" transform="translate(0 8.571)"/>
    </clipPath>
  </defs>
  <g id="Group_20" data-name="Group 20" transform="translate(727.753 12)">
    <g id="Group_13" data-name="Group 13" transform="translate(8.481 9.895)">
      <g id="Group_12" data-name="Group 12" class="cls-2" transform="translate(0 0)">
        <g id="Group_11" data-name="Group 11" transform="translate(0 -0.001)">
          <path id="Path_6" data-name="Path 6" class="cls-3" d="M3.85.56A2.967,2.967,0,0,0,5.194-1.125a5.955,5.955,0,0,1-1.941.738A2.947,2.947,0,0,0,1.02-1.353a2.944,2.944,0,0,0-2.163.895A2.946,2.946,0,0,0-2.038,1.7a3.472,3.472,0,0,0,.075.7,8.53,8.53,0,0,1-3.516-.941A8.654,8.654,0,0,1-8.266-.795,2.991,2.991,0,0,0-8.683.749a2.978,2.978,0,0,0,.369,1.457,3.055,3.055,0,0,0,.994,1.088A3.031,3.031,0,0,1-8.7,2.907v.037a2.956,2.956,0,0,0,.7,1.946A3,3,0,0,0-6.25,5.945a3.172,3.172,0,0,1-.8.1A3.774,3.774,0,0,1-7.633,6a2.991,2.991,0,0,0,1.08,1.511,2.969,2.969,0,0,0,1.78.609A5.982,5.982,0,0,1-8.57,9.43a6.479,6.479,0,0,1-.738-.038,8.493,8.493,0,0,0,4.694,1.373,8.947,8.947,0,0,0,3.058-.516A7.763,7.763,0,0,0,.887,8.866,9.226,9.226,0,0,0,2.634,6.874,8.94,8.94,0,0,0,3.727,4.52a8.661,8.661,0,0,0,.359-2.455q0-.265-.008-.4A6.418,6.418,0,0,0,5.611.086,6.106,6.106,0,0,1,3.85.56" transform="translate(9.308 1.353)"/>
        </g>
      </g>
    </g>
  </g>
</svg>
